<svg xmlns="http://www.w3.org/2000/svg" version="1.1" xmlns:xlink="http://www.w3.org/1999/xlink" xmlns:svgjs="http://svgjs.dev/svgjs" width="1920" height="1080" preserveAspectRatio="none" viewBox="0 0 1920 1080"><g mask="url(&quot;#SvgjsMask1053&quot;)" fill="none"><rect width="1920" height="1080" x="0" y="0" fill="rgba(81, 46, 95, 1)"></rect><path d="M0,681.641C156.682,681.524,313.264,771.418,459.336,714.741C614.954,654.36,753.243,526.571,806.972,368.532C859.496,214.036,798.399,45.589,738.423,-106.169C687.897,-234.016,593.898,-333.902,492.625,-426.862C401.127,-510.849,300.206,-581.578,181.325,-617.536C61.751,-653.704,-61.107,-642.698,-185.572,-631.999C-339.575,-618.76,-508.908,-641.127,-631.988,-547.621C-761.989,-448.857,-822.145,-282.817,-855.543,-123.008C-890.397,43.767,-897.917,222.775,-825.189,376.851C-752.842,530.119,-618.765,656.706,-459.778,715.429C-312.645,769.774,-156.849,681.758,0,681.641" fill="#3e2349"></path><path d="M1920 1778.109C2051.524 1765.124 2163.637 1698.263 2287.206 1651.384 2447.824 1590.449 2658.243 1603.279 2754.999 1461.3310000000001 2851.187 1320.216 2803.578 1124.215 2758.891 959.386 2717.614 807.133 2625.281 676.883 2512.442 566.646 2406.358 463.00800000000004 2280.281 376.77 2134.52 349.41099999999994 1995.921 323.39599999999996 1864.181 391.275 1725.917 419.014 1571.878 449.918 1393.185 417.40200000000004 1275.701 521.712 1155.771 628.194 1109.234 803.512 1112.255 963.864 1115.083 1113.948 1223.336 1233.291 1291.6280000000002 1366.968 1356.493 1493.937 1383.731 1650.74 1503.04 1728.8029999999999 1622.575 1807.0140000000001 1777.843 1792.144 1920 1778.109" fill="#643975"></path></g><defs><mask id="SvgjsMask1053"><rect width="1920" height="1080" fill="#ffffff"></rect></mask></defs></svg>